<mxfile host="app.diagrams.net" modified="2024-03-27T20:26:21.387Z" agent="Mozilla/5.0 (Windows NT 10.0; Win64; x64) AppleWebKit/537.36 (KHTML, like Gecko) Chrome/122.0.0.0 Safari/537.36" etag="35pyPKXK8owTvUSeAgOa" version="23.1.6" type="github">
  <diagram id="prtHgNgQTEPvFCAcTncT" name="Page-1">
    <mxGraphModel dx="819" dy="469" grid="1" gridSize="10" guides="1" tooltips="1" connect="1" arrows="1" fold="1" page="1" pageScale="1" pageWidth="827" pageHeight="1169" math="0" shadow="0">
      <root>
        <mxCell id="0" />
        <mxCell id="1" parent="0" />
        <mxCell id="dNxyNK7c78bLwvsdeMH5-19" value="Resin process" style="swimlane;html=1;childLayout=stackLayout;resizeParent=1;resizeParentMax=0;horizontal=0;startSize=20;horizontalStack=0;" parent="1" vertex="1">
          <mxGeometry x="20" y="10" width="1260" height="860" as="geometry" />
        </mxCell>
        <mxCell id="dNxyNK7c78bLwvsdeMH5-20" value="MMT" style="swimlane;html=1;startSize=20;horizontal=0;" parent="dNxyNK7c78bLwvsdeMH5-19" vertex="1">
          <mxGeometry x="20" width="1240" height="400" as="geometry" />
        </mxCell>
        <mxCell id="YBL54SsG0Jlp0goeKWhG-16" value="" style="edgeStyle=orthogonalEdgeStyle;rounded=0;orthogonalLoop=1;jettySize=auto;html=1;" edge="1" parent="dNxyNK7c78bLwvsdeMH5-20" source="YBL54SsG0Jlp0goeKWhG-13" target="YBL54SsG0Jlp0goeKWhG-15">
          <mxGeometry relative="1" as="geometry" />
        </mxCell>
        <mxCell id="YBL54SsG0Jlp0goeKWhG-29" value="Sim" style="edgeLabel;html=1;align=center;verticalAlign=middle;resizable=0;points=[];" vertex="1" connectable="0" parent="YBL54SsG0Jlp0goeKWhG-16">
          <mxGeometry x="-0.287" y="3" relative="1" as="geometry">
            <mxPoint as="offset" />
          </mxGeometry>
        </mxCell>
        <mxCell id="YBL54SsG0Jlp0goeKWhG-18" value="" style="edgeStyle=orthogonalEdgeStyle;rounded=0;orthogonalLoop=1;jettySize=auto;html=1;" edge="1" parent="dNxyNK7c78bLwvsdeMH5-20" source="YBL54SsG0Jlp0goeKWhG-13" target="YBL54SsG0Jlp0goeKWhG-17">
          <mxGeometry relative="1" as="geometry" />
        </mxCell>
        <mxCell id="YBL54SsG0Jlp0goeKWhG-28" value="Não" style="edgeLabel;html=1;align=center;verticalAlign=middle;resizable=0;points=[];" vertex="1" connectable="0" parent="YBL54SsG0Jlp0goeKWhG-18">
          <mxGeometry x="-0.0414" relative="1" as="geometry">
            <mxPoint as="offset" />
          </mxGeometry>
        </mxCell>
        <mxCell id="YBL54SsG0Jlp0goeKWhG-13" value="Material disponível no armário?" style="rhombus;whiteSpace=wrap;html=1;fillColor=#fff2cc;strokeColor=#d6b656;rounded=0;fontSize=10;" vertex="1" parent="dNxyNK7c78bLwvsdeMH5-20">
          <mxGeometry x="460" y="170" width="80" height="80" as="geometry" />
        </mxCell>
        <mxCell id="YBL54SsG0Jlp0goeKWhG-25" value="" style="edgeStyle=orthogonalEdgeStyle;rounded=0;orthogonalLoop=1;jettySize=auto;html=1;" edge="1" parent="dNxyNK7c78bLwvsdeMH5-20" source="YBL54SsG0Jlp0goeKWhG-15" target="YBL54SsG0Jlp0goeKWhG-24">
          <mxGeometry relative="1" as="geometry" />
        </mxCell>
        <mxCell id="YBL54SsG0Jlp0goeKWhG-15" value="Substituir lata de resina vazia da bomba de abastecimento" style="whiteSpace=wrap;html=1;fontSize=10;fillColor=#dae8fc;strokeColor=#6c8ebf;rounded=0;" vertex="1" parent="dNxyNK7c78bLwvsdeMH5-20">
          <mxGeometry x="760" y="180" width="120" height="60" as="geometry" />
        </mxCell>
        <mxCell id="YBL54SsG0Jlp0goeKWhG-20" value="" style="edgeStyle=orthogonalEdgeStyle;rounded=0;orthogonalLoop=1;jettySize=auto;html=1;" edge="1" parent="dNxyNK7c78bLwvsdeMH5-20" source="YBL54SsG0Jlp0goeKWhG-17" target="YBL54SsG0Jlp0goeKWhG-19">
          <mxGeometry relative="1" as="geometry" />
        </mxCell>
        <mxCell id="YBL54SsG0Jlp0goeKWhG-17" value="Solicitar resina / catalisador no AGA" style="whiteSpace=wrap;html=1;fontSize=10;fillColor=#dae8fc;strokeColor=#6c8ebf;rounded=0;" vertex="1" parent="dNxyNK7c78bLwvsdeMH5-20">
          <mxGeometry x="440" y="50" width="120" height="60" as="geometry" />
        </mxCell>
        <mxCell id="YBL54SsG0Jlp0goeKWhG-22" value="" style="edgeStyle=orthogonalEdgeStyle;rounded=0;orthogonalLoop=1;jettySize=auto;html=1;" edge="1" parent="dNxyNK7c78bLwvsdeMH5-20" source="YBL54SsG0Jlp0goeKWhG-19" target="YBL54SsG0Jlp0goeKWhG-21">
          <mxGeometry relative="1" as="geometry" />
        </mxCell>
        <mxCell id="YBL54SsG0Jlp0goeKWhG-19" value="Recebimento e conferência do material" style="whiteSpace=wrap;html=1;fontSize=10;fillColor=#dae8fc;strokeColor=#6c8ebf;rounded=0;" vertex="1" parent="dNxyNK7c78bLwvsdeMH5-20">
          <mxGeometry x="600" y="50" width="120" height="60" as="geometry" />
        </mxCell>
        <mxCell id="YBL54SsG0Jlp0goeKWhG-23" style="edgeStyle=orthogonalEdgeStyle;rounded=0;orthogonalLoop=1;jettySize=auto;html=1;entryX=0.5;entryY=0;entryDx=0;entryDy=0;" edge="1" parent="dNxyNK7c78bLwvsdeMH5-20" source="YBL54SsG0Jlp0goeKWhG-21" target="YBL54SsG0Jlp0goeKWhG-15">
          <mxGeometry relative="1" as="geometry" />
        </mxCell>
        <mxCell id="YBL54SsG0Jlp0goeKWhG-21" value="Armazenamento no larmário corta chamas" style="whiteSpace=wrap;html=1;fontSize=10;fillColor=#dae8fc;strokeColor=#6c8ebf;rounded=0;" vertex="1" parent="dNxyNK7c78bLwvsdeMH5-20">
          <mxGeometry x="760" y="50" width="120" height="60" as="geometry" />
        </mxCell>
        <mxCell id="YBL54SsG0Jlp0goeKWhG-24" value="Romper lacre e posicionar nova lata de resina na bomba" style="whiteSpace=wrap;html=1;fontSize=10;fillColor=#dae8fc;strokeColor=#6c8ebf;rounded=0;" vertex="1" parent="dNxyNK7c78bLwvsdeMH5-20">
          <mxGeometry x="920" y="180" width="120" height="60" as="geometry" />
        </mxCell>
        <mxCell id="YBL54SsG0Jlp0goeKWhG-37" value="" style="edgeStyle=orthogonalEdgeStyle;rounded=0;orthogonalLoop=1;jettySize=auto;html=1;" edge="1" parent="dNxyNK7c78bLwvsdeMH5-20" source="YBL54SsG0Jlp0goeKWhG-3" target="YBL54SsG0Jlp0goeKWhG-36">
          <mxGeometry relative="1" as="geometry" />
        </mxCell>
        <mxCell id="YBL54SsG0Jlp0goeKWhG-3" value="Nível do tanque baixo?" style="rhombus;whiteSpace=wrap;html=1;fillColor=#fff2cc;strokeColor=#d6b656;rounded=0;fontSize=10;" vertex="1" parent="dNxyNK7c78bLwvsdeMH5-20">
          <mxGeometry x="330" y="170" width="80" height="80" as="geometry" />
        </mxCell>
        <mxCell id="YBL54SsG0Jlp0goeKWhG-10" value="" style="edgeStyle=orthogonalEdgeStyle;rounded=0;orthogonalLoop=1;jettySize=auto;html=1;entryX=0;entryY=0.5;entryDx=0;entryDy=0;" edge="1" parent="dNxyNK7c78bLwvsdeMH5-20" source="YBL54SsG0Jlp0goeKWhG-3" target="YBL54SsG0Jlp0goeKWhG-13">
          <mxGeometry relative="1" as="geometry">
            <mxPoint x="600" y="170" as="targetPoint" />
          </mxGeometry>
        </mxCell>
        <mxCell id="YBL54SsG0Jlp0goeKWhG-11" value="Sim" style="edgeLabel;html=1;align=center;verticalAlign=middle;resizable=0;points=[];" vertex="1" connectable="0" parent="YBL54SsG0Jlp0goeKWhG-10">
          <mxGeometry x="0.0653" y="-1" relative="1" as="geometry">
            <mxPoint x="-7" y="-1" as="offset" />
          </mxGeometry>
        </mxCell>
        <mxCell id="dNxyNK7c78bLwvsdeMH5-23" value="" style="ellipse;whiteSpace=wrap;html=1;fillColor=#d5e8d4;strokeColor=#82b366;" parent="dNxyNK7c78bLwvsdeMH5-20" vertex="1">
          <mxGeometry x="70" y="190" width="40" height="40" as="geometry" />
        </mxCell>
        <mxCell id="YBL54SsG0Jlp0goeKWhG-1" value="Avaliação da máquina" style="whiteSpace=wrap;html=1;fillColor=#dae8fc;strokeColor=#6c8ebf;rounded=0;fontSize=11;" vertex="1" parent="dNxyNK7c78bLwvsdeMH5-20">
          <mxGeometry x="160" y="180" width="120" height="60" as="geometry" />
        </mxCell>
        <mxCell id="YBL54SsG0Jlp0goeKWhG-4" value="" style="edgeStyle=orthogonalEdgeStyle;rounded=0;orthogonalLoop=1;jettySize=auto;html=1;" edge="1" parent="dNxyNK7c78bLwvsdeMH5-20" source="YBL54SsG0Jlp0goeKWhG-1" target="YBL54SsG0Jlp0goeKWhG-3">
          <mxGeometry relative="1" as="geometry" />
        </mxCell>
        <mxCell id="dNxyNK7c78bLwvsdeMH5-25" value="" style="edgeStyle=orthogonalEdgeStyle;rounded=0;orthogonalLoop=1;jettySize=auto;html=1;entryX=-0.039;entryY=0.515;entryDx=0;entryDy=0;entryPerimeter=0;" parent="dNxyNK7c78bLwvsdeMH5-20" source="dNxyNK7c78bLwvsdeMH5-23" target="YBL54SsG0Jlp0goeKWhG-1" edge="1">
          <mxGeometry relative="1" as="geometry">
            <mxPoint x="120" y="400.0000000000001" as="targetPoint" />
          </mxGeometry>
        </mxCell>
        <mxCell id="YBL54SsG0Jlp0goeKWhG-12" value="Finalizado o uso da &lt;br&gt;máquina após injeção" style="text;html=1;align=center;verticalAlign=middle;resizable=0;points=[];autosize=1;strokeColor=none;fillColor=none;fontSize=11;" vertex="1" parent="dNxyNK7c78bLwvsdeMH5-20">
          <mxGeometry x="25" y="150" width="130" height="40" as="geometry" />
        </mxCell>
        <mxCell id="YBL54SsG0Jlp0goeKWhG-38" style="edgeStyle=orthogonalEdgeStyle;rounded=0;orthogonalLoop=1;jettySize=auto;html=1;entryX=0.5;entryY=0;entryDx=0;entryDy=0;" edge="1" parent="dNxyNK7c78bLwvsdeMH5-20" source="YBL54SsG0Jlp0goeKWhG-34" target="YBL54SsG0Jlp0goeKWhG-3">
          <mxGeometry relative="1" as="geometry" />
        </mxCell>
        <mxCell id="YBL54SsG0Jlp0goeKWhG-34" value="1" style="ellipse;whiteSpace=wrap;html=1;fontSize=13;fillColor=#ffe6cc;strokeColor=#d79b00;rounded=0;" vertex="1" parent="dNxyNK7c78bLwvsdeMH5-20">
          <mxGeometry x="345" y="90" width="50" height="50" as="geometry" />
        </mxCell>
        <mxCell id="YBL54SsG0Jlp0goeKWhG-36" value="Enviar máquina para MIP" style="whiteSpace=wrap;html=1;fontSize=10;fillColor=#dae8fc;strokeColor=#6c8ebf;rounded=0;" vertex="1" parent="dNxyNK7c78bLwvsdeMH5-20">
          <mxGeometry x="310" y="290" width="120" height="60" as="geometry" />
        </mxCell>
        <mxCell id="dNxyNK7c78bLwvsdeMH5-21" value="MIP" style="swimlane;html=1;startSize=20;horizontal=0;" parent="dNxyNK7c78bLwvsdeMH5-19" vertex="1">
          <mxGeometry x="20" y="400" width="1240" height="300" as="geometry" />
        </mxCell>
        <mxCell id="YBL54SsG0Jlp0goeKWhG-42" value="" style="edgeStyle=orthogonalEdgeStyle;rounded=0;orthogonalLoop=1;jettySize=auto;html=1;" edge="1" parent="dNxyNK7c78bLwvsdeMH5-21" source="YBL54SsG0Jlp0goeKWhG-39" target="YBL54SsG0Jlp0goeKWhG-41">
          <mxGeometry relative="1" as="geometry" />
        </mxCell>
        <mxCell id="YBL54SsG0Jlp0goeKWhG-39" value="Recebimento da máquina" style="whiteSpace=wrap;html=1;fontSize=10;fillColor=#dae8fc;strokeColor=#6c8ebf;rounded=0;" vertex="1" parent="dNxyNK7c78bLwvsdeMH5-21">
          <mxGeometry x="310" y="70" width="120" height="60" as="geometry" />
        </mxCell>
        <mxCell id="YBL54SsG0Jlp0goeKWhG-44" value="" style="edgeStyle=orthogonalEdgeStyle;rounded=0;orthogonalLoop=1;jettySize=auto;html=1;" edge="1" parent="dNxyNK7c78bLwvsdeMH5-21" source="YBL54SsG0Jlp0goeKWhG-41" target="YBL54SsG0Jlp0goeKWhG-43">
          <mxGeometry relative="1" as="geometry" />
        </mxCell>
        <mxCell id="YBL54SsG0Jlp0goeKWhG-49" value="Sim" style="edgeLabel;html=1;align=center;verticalAlign=middle;resizable=0;points=[];" vertex="1" connectable="0" parent="YBL54SsG0Jlp0goeKWhG-44">
          <mxGeometry x="-0.4667" y="-1" relative="1" as="geometry">
            <mxPoint as="offset" />
          </mxGeometry>
        </mxCell>
        <mxCell id="YBL54SsG0Jlp0goeKWhG-47" value="" style="edgeStyle=orthogonalEdgeStyle;rounded=0;orthogonalLoop=1;jettySize=auto;html=1;" edge="1" parent="dNxyNK7c78bLwvsdeMH5-21" source="YBL54SsG0Jlp0goeKWhG-41" target="YBL54SsG0Jlp0goeKWhG-46">
          <mxGeometry relative="1" as="geometry" />
        </mxCell>
        <mxCell id="YBL54SsG0Jlp0goeKWhG-48" value="Não" style="edgeLabel;html=1;align=center;verticalAlign=middle;resizable=0;points=[];" vertex="1" connectable="0" parent="YBL54SsG0Jlp0goeKWhG-47">
          <mxGeometry x="-0.4667" y="1" relative="1" as="geometry">
            <mxPoint x="7" y="1" as="offset" />
          </mxGeometry>
        </mxCell>
        <mxCell id="YBL54SsG0Jlp0goeKWhG-41" value="Nível do tanque baixo?" style="rhombus;whiteSpace=wrap;html=1;fontSize=10;fillColor=#fff2cc;strokeColor=#d6b656;rounded=0;" vertex="1" parent="dNxyNK7c78bLwvsdeMH5-21">
          <mxGeometry x="480" y="60" width="80" height="80" as="geometry" />
        </mxCell>
        <mxCell id="YBL54SsG0Jlp0goeKWhG-43" value="Acionar MMT para abastecimento da máquina" style="whiteSpace=wrap;html=1;fontSize=10;fillColor=#dae8fc;strokeColor=#6c8ebf;rounded=0;" vertex="1" parent="dNxyNK7c78bLwvsdeMH5-21">
          <mxGeometry x="460" y="175" width="120" height="60" as="geometry" />
        </mxCell>
        <mxCell id="YBL54SsG0Jlp0goeKWhG-46" value="" style="whiteSpace=wrap;html=1;fontSize=10;fillColor=#dae8fc;strokeColor=#6c8ebf;rounded=0;" vertex="1" parent="dNxyNK7c78bLwvsdeMH5-21">
          <mxGeometry x="610" y="70" width="120" height="60" as="geometry" />
        </mxCell>
        <mxCell id="dNxyNK7c78bLwvsdeMH5-22" value="CQ" style="swimlane;html=1;startSize=20;horizontal=0;" parent="dNxyNK7c78bLwvsdeMH5-19" vertex="1">
          <mxGeometry x="20" y="700" width="1240" height="160" as="geometry" />
        </mxCell>
        <mxCell id="YBL54SsG0Jlp0goeKWhG-40" value="" style="edgeStyle=orthogonalEdgeStyle;rounded=0;orthogonalLoop=1;jettySize=auto;html=1;" edge="1" parent="dNxyNK7c78bLwvsdeMH5-19" source="YBL54SsG0Jlp0goeKWhG-36" target="YBL54SsG0Jlp0goeKWhG-39">
          <mxGeometry relative="1" as="geometry" />
        </mxCell>
        <mxCell id="YBL54SsG0Jlp0goeKWhG-45" style="edgeStyle=orthogonalEdgeStyle;rounded=0;orthogonalLoop=1;jettySize=auto;html=1;entryX=0.5;entryY=1;entryDx=0;entryDy=0;" edge="1" parent="dNxyNK7c78bLwvsdeMH5-19" source="YBL54SsG0Jlp0goeKWhG-43" target="YBL54SsG0Jlp0goeKWhG-1">
          <mxGeometry relative="1" as="geometry" />
        </mxCell>
        <mxCell id="YBL54SsG0Jlp0goeKWhG-32" style="edgeStyle=orthogonalEdgeStyle;rounded=0;orthogonalLoop=1;jettySize=auto;html=1;exitX=0.5;exitY=0;exitDx=0;exitDy=0;entryX=0.5;entryY=0;entryDx=0;entryDy=0;" edge="1" parent="1" source="YBL54SsG0Jlp0goeKWhG-26" target="YBL54SsG0Jlp0goeKWhG-1">
          <mxGeometry relative="1" as="geometry">
            <mxPoint x="1180.5" y="100" as="targetPoint" />
            <mxPoint x="1220" y="160" as="sourcePoint" />
            <Array as="points">
              <mxPoint x="1181" y="30" />
              <mxPoint x="260" y="30" />
            </Array>
          </mxGeometry>
        </mxCell>
        <mxCell id="YBL54SsG0Jlp0goeKWhG-26" value="Calibrar bomba de abastecimento e abastecer máquina de injeção" style="whiteSpace=wrap;html=1;fontSize=10;fillColor=#dae8fc;strokeColor=#6c8ebf;rounded=0;" vertex="1" parent="1">
          <mxGeometry x="1120.5" y="190" width="120" height="60" as="geometry" />
        </mxCell>
        <mxCell id="YBL54SsG0Jlp0goeKWhG-27" value="" style="edgeStyle=orthogonalEdgeStyle;rounded=0;orthogonalLoop=1;jettySize=auto;html=1;" edge="1" parent="1" source="YBL54SsG0Jlp0goeKWhG-24" target="YBL54SsG0Jlp0goeKWhG-26">
          <mxGeometry relative="1" as="geometry" />
        </mxCell>
      </root>
    </mxGraphModel>
  </diagram>
</mxfile>
